<?xml version="1.0" encoding="UTF-8"?>
<svg xmlns="http://www.w3.org/2000/svg" xmlns:xlink="http://www.w3.org/1999/xlink" width="2000" height="2000" viewBox="0 0 2000 2000">
<defs>
<radialGradient id="radial-pattern-0" gradientUnits="userSpaceOnUse" cx="0" cy="0" fx="0" fy="0" r="1782.98" gradientTransform="matrix(1.215942, 0, 0, 0.784058, 1000, 1000)">
<stop offset="0" stop-color="rgb(99.865723%, 99.864197%, 99.864197%)" stop-opacity="1"/>
<stop offset="0.0625" stop-color="rgb(99.606323%, 99.598694%, 99.60022%)" stop-opacity="1"/>
<stop offset="0.121094" stop-color="rgb(99.360657%, 99.34845%, 99.351501%)" stop-opacity="1"/>
<stop offset="0.175781" stop-color="rgb(99.134827%, 99.118042%, 99.12262%)" stop-opacity="1"/>
<stop offset="0.226562" stop-color="rgb(98.924255%, 98.904419%, 98.908997%)" stop-opacity="1"/>
<stop offset="0.273438" stop-color="rgb(98.728943%, 98.706055%, 98.712158%)" stop-opacity="1"/>
<stop offset="0.316406" stop-color="rgb(98.551941%, 98.526001%, 98.532104%)" stop-opacity="1"/>
<stop offset="0.355469" stop-color="rgb(98.300171%, 98.268127%, 98.277283%)" stop-opacity="1"/>
<stop offset="0.433594" stop-color="rgb(97.97821%, 97.941589%, 97.950745%)" stop-opacity="1"/>
<stop offset="0.503906" stop-color="rgb(97.702026%, 97.660828%, 97.669983%)" stop-opacity="1"/>
<stop offset="0.5625" stop-color="rgb(97.457886%, 97.410583%, 97.422791%)" stop-opacity="1"/>
<stop offset="0.617188" stop-color="rgb(97.238159%, 97.187805%, 97.201538%)" stop-opacity="1"/>
<stop offset="0.664062" stop-color="rgb(97.053528%, 97.000122%, 97.012329%)" stop-opacity="1"/>
<stop offset="0.703125" stop-color="rgb(96.807861%, 96.749878%, 96.765137%)" stop-opacity="1"/>
<stop offset="0.777344" stop-color="rgb(96.531677%, 96.469116%, 96.484375%)" stop-opacity="1"/>
<stop offset="0.832031" stop-color="rgb(96.328735%, 96.263123%, 96.278381%)" stop-opacity="1"/>
<stop offset="0.871094" stop-color="rgb(96.109009%, 96.038818%, 96.055603%)" stop-opacity="1"/>
<stop offset="0.933594" stop-color="rgb(95.831299%, 95.755005%, 95.774841%)" stop-opacity="1"/>
<stop offset="1" stop-color="rgb(95.687866%, 95.610046%, 95.629883%)" stop-opacity="1"/>
</radialGradient>
<clipPath id="clip-0">
<path clip-rule="nonzero" d="M 344 460 L 1403 460 L 1403 1189 L 344 1189 Z M 344 460 "/>
</clipPath>
<clipPath id="clip-1">
<path clip-rule="nonzero" d="M 1173.628906 947.820312 C 985.035156 1086.46875 763.785156 1131.140625 589.914062 1082.890625 C 441.367188 1041.671875 377.023438 866.191406 462.769531 738.070312 C 556.355469 598.25 719.617188 510.460938 899.6875 521.46875 C 994.316406 527.261719 1081 559.570312 1152.988281 610.738281 C 1074.738281 525.011719 964.390625 468.398438 839.382812 460.761719 C 583.105469 445.078125 257.65625 714.78125 366.21875 992.019531 C 393.023438 1060.460938 450.28125 1111.480469 515.285156 1143.171875 C 595.734375 1182.390625 687.578125 1193.691406 776.085938 1185.710938 C 907.585938 1173.871094 1033.789062 1120.449219 1139.671875 1042.609375 C 1271.570312 945.628906 1362.058594 818.050781 1402.511719 689.179688 C 1350.898438 784.410156 1273.46875 874.410156 1173.628906 947.820312 Z M 1173.628906 947.820312 "/>
</clipPath>
<clipPath id="clip-2">
<path clip-rule="nonzero" d="M 1173.628906 947.820312 C 985.035156 1086.46875 763.785156 1131.140625 589.914062 1082.890625 C 441.367188 1041.671875 377.023438 866.191406 462.769531 738.070312 C 556.355469 598.25 719.617188 510.460938 899.6875 521.46875 C 994.316406 527.261719 1081 559.570312 1152.988281 610.738281 C 1074.738281 525.011719 964.390625 468.398438 839.382812 460.761719 C 583.105469 445.078125 257.65625 714.78125 366.21875 992.019531 C 393.023438 1060.460938 450.28125 1111.480469 515.285156 1143.171875 C 595.734375 1182.390625 687.578125 1193.691406 776.085938 1185.710938 C 907.585938 1173.871094 1033.789062 1120.449219 1139.671875 1042.609375 C 1271.570312 945.628906 1362.058594 818.050781 1402.511719 689.179688 C 1350.898438 784.410156 1273.46875 874.410156 1173.628906 947.820312 "/>
</clipPath>
<linearGradient id="linear-pattern-0" gradientUnits="userSpaceOnUse" x1="0.313941" y1="0" x2="0.992028" y2="0" gradientTransform="matrix(-1608.79, 1209.81, -1209.81, -1608.79, 1874.05, 20.69)">
<stop offset="0" stop-color="rgb(44.598389%, 75.78125%, 89.797974%)" stop-opacity="1"/>
<stop offset="0.015625" stop-color="rgb(44.47937%, 75.654602%, 89.741516%)" stop-opacity="1"/>
<stop offset="0.03125" stop-color="rgb(44.262695%, 75.402832%, 89.648438%)" stop-opacity="1"/>
<stop offset="0.046875" stop-color="rgb(44.17572%, 75.193787%, 89.659119%)" stop-opacity="1"/>
<stop offset="0.0625" stop-color="rgb(44.108582%, 74.989319%, 89.683533%)" stop-opacity="1"/>
<stop offset="0.078125" stop-color="rgb(43.913269%, 74.746704%, 89.605713%)" stop-opacity="1"/>
<stop offset="0.09375" stop-color="rgb(43.676758%, 74.491882%, 89.494324%)" stop-opacity="1"/>
<stop offset="0.109375" stop-color="rgb(43.525696%, 74.261475%, 89.385986%)" stop-opacity="1"/>
<stop offset="0.125" stop-color="rgb(43.481445%, 74.060059%, 89.300537%)" stop-opacity="1"/>
<stop offset="0.140625" stop-color="rgb(43.35022%, 73.838806%, 89.308167%)" stop-opacity="1"/>
<stop offset="0.15625" stop-color="rgb(43.113708%, 73.591614%, 89.323425%)" stop-opacity="1"/>
<stop offset="0.171875" stop-color="rgb(42.878723%, 73.339844%, 89.241028%)" stop-opacity="1"/>
<stop offset="0.1875" stop-color="rgb(42.643738%, 73.0896%, 89.129639%)" stop-opacity="1"/>
<stop offset="0.203125" stop-color="rgb(42.495728%, 72.860718%, 89.021301%)" stop-opacity="1"/>
<stop offset="0.21875" stop-color="rgb(42.451477%, 72.662354%, 88.935852%)" stop-opacity="1"/>
<stop offset="0.234375" stop-color="rgb(42.321777%, 72.444153%, 88.941956%)" stop-opacity="1"/>
<stop offset="0.25" stop-color="rgb(42.088318%, 72.200012%, 88.955688%)" stop-opacity="1"/>
<stop offset="0.265625" stop-color="rgb(41.880798%, 71.940613%, 88.864136%)" stop-opacity="1"/>
<stop offset="0.273437" stop-color="rgb(41.799927%, 71.714783%, 88.748169%)" stop-opacity="1"/>
<stop offset="0.28125" stop-color="rgb(41.819763%, 71.534729%, 88.647461%)" stop-opacity="1"/>
<stop offset="0.296875" stop-color="rgb(41.755676%, 71.302795%, 88.526917%)" stop-opacity="1"/>
<stop offset="0.3125" stop-color="rgb(41.566467%, 71.037292%, 88.418579%)" stop-opacity="1"/>
<stop offset="0.328125" stop-color="rgb(41.333008%, 70.796204%, 88.418579%)" stop-opacity="1"/>
<stop offset="0.34375" stop-color="rgb(41.188049%, 70.576477%, 88.432312%)" stop-opacity="1"/>
<stop offset="0.359375" stop-color="rgb(41.145325%, 70.381165%, 88.357544%)" stop-opacity="1"/>
<stop offset="0.375" stop-color="rgb(41.017151%, 70.162964%, 88.249207%)" stop-opacity="1"/>
<stop offset="0.390625" stop-color="rgb(40.785217%, 69.920349%, 88.136292%)" stop-opacity="1"/>
<stop offset="0.40625" stop-color="rgb(40.556335%, 69.677734%, 88.043213%)" stop-opacity="1"/>
<stop offset="0.421875" stop-color="rgb(40.324402%, 69.438171%, 88.043213%)" stop-opacity="1"/>
<stop offset="0.4375" stop-color="rgb(40.184021%, 69.223022%, 88.053894%)" stop-opacity="1"/>
<stop offset="0.453125" stop-color="rgb(40.141296%, 69.02771%, 87.976074%)" stop-opacity="1"/>
<stop offset="0.46875" stop-color="rgb(40.013123%, 68.812561%, 87.867737%)" stop-opacity="1"/>
<stop offset="0.484375" stop-color="rgb(39.782715%, 68.571472%, 87.756348%)" stop-opacity="1"/>
<stop offset="0.5" stop-color="rgb(39.579773%, 68.339539%, 87.664795%)" stop-opacity="1"/>
<stop offset="0.515625" stop-color="rgb(39.501953%, 68.141174%, 87.669373%)" stop-opacity="1"/>
<stop offset="0.53125" stop-color="rgb(39.434814%, 67.945862%, 87.680054%)" stop-opacity="1"/>
<stop offset="0.546875" stop-color="rgb(39.24408%, 67.71698%, 87.59613%)" stop-opacity="1"/>
<stop offset="0.5625" stop-color="rgb(39.016724%, 67.480469%, 87.483215%)" stop-opacity="1"/>
<stop offset="0.570312" stop-color="rgb(38.874817%, 67.289734%, 87.388611%)" stop-opacity="1"/>
<stop offset="0.578125" stop-color="rgb(38.858032%, 67.129517%, 87.30011%)" stop-opacity="1"/>
<stop offset="0.585938" stop-color="rgb(38.88092%, 66.952515%, 87.197876%)" stop-opacity="1"/>
<stop offset="0.59375" stop-color="rgb(38.874817%, 66.789246%, 87.12616%)" stop-opacity="1"/>
<stop offset="0.609375" stop-color="rgb(38.743591%, 66.598511%, 87.138367%)" stop-opacity="1"/>
<stop offset="0.625" stop-color="rgb(38.516235%, 66.366577%, 87.139893%)" stop-opacity="1"/>
<stop offset="0.640625" stop-color="rgb(38.288879%, 66.134644%, 87.052917%)" stop-opacity="1"/>
<stop offset="0.65625" stop-color="rgb(38.064575%, 65.901184%, 86.940002%)" stop-opacity="1"/>
<stop offset="0.671875" stop-color="rgb(37.928772%, 65.689087%, 86.831665%)" stop-opacity="1"/>
<stop offset="0.6875" stop-color="rgb(37.889099%, 65.499878%, 86.746216%)" stop-opacity="1"/>
<stop offset="0.703125" stop-color="rgb(37.760925%, 65.293884%, 86.747742%)" stop-opacity="1"/>
<stop offset="0.71875" stop-color="rgb(37.536621%, 65.065002%, 86.746216%)" stop-opacity="1"/>
<stop offset="0.734375" stop-color="rgb(37.339783%, 64.842224%, 86.659241%)" stop-opacity="1"/>
<stop offset="0.75" stop-color="rgb(37.268066%, 64.646912%, 86.552429%)" stop-opacity="1"/>
<stop offset="0.765625" stop-color="rgb(37.202454%, 64.453125%, 86.447144%)" stop-opacity="1"/>
<stop offset="0.78125" stop-color="rgb(37.013245%, 64.231873%, 86.355591%)" stop-opacity="1"/>
<stop offset="0.796875" stop-color="rgb(36.78894%, 64.006042%, 86.351013%)" stop-opacity="1"/>
<stop offset="0.8125" stop-color="rgb(36.654663%, 63.801575%, 86.351013%)" stop-opacity="1"/>
<stop offset="0.828125" stop-color="rgb(36.618042%, 63.613892%, 86.270142%)" stop-opacity="1"/>
<stop offset="0.84375" stop-color="rgb(36.489868%, 63.409424%, 86.160278%)" stop-opacity="1"/>
<stop offset="0.851562" stop-color="rgb(36.326599%, 63.218689%, 86.064148%)" stop-opacity="1"/>
<stop offset="0.859375" stop-color="rgb(36.224365%, 63.043213%, 85.969543%)" stop-opacity="1"/>
<stop offset="0.867188" stop-color="rgb(36.126709%, 62.844849%, 85.862732%)" stop-opacity="1"/>
<stop offset="0.875" stop-color="rgb(36.024475%, 62.667847%, 85.787964%)" stop-opacity="1"/>
<stop offset="0.890625" stop-color="rgb(35.862732%, 62.478638%, 85.795593%)" stop-opacity="1"/>
<stop offset="0.90625" stop-color="rgb(35.733032%, 62.277222%, 85.795593%)" stop-opacity="1"/>
<stop offset="0.921875" stop-color="rgb(35.696411%, 62.09259%, 85.71167%)" stop-opacity="1"/>
<stop offset="0.9375" stop-color="rgb(35.568237%, 61.889648%, 85.603333%)" stop-opacity="1"/>
<stop offset="0.953125" stop-color="rgb(35.348511%, 61.668396%, 85.490417%)" stop-opacity="1"/>
<stop offset="0.96875" stop-color="rgb(35.159302%, 61.453247%, 85.398865%)" stop-opacity="1"/>
<stop offset="0.984375" stop-color="rgb(35.090637%, 61.265564%, 85.398865%)" stop-opacity="1"/>
<stop offset="1" stop-color="rgb(35.025024%, 61.077881%, 85.398865%)" stop-opacity="1"/>
</linearGradient>
<clipPath id="clip-3">
<path clip-rule="nonzero" d="M 1341 330 L 1656 330 L 1656 697 L 1341 697 Z M 1341 330 "/>
</clipPath>
<clipPath id="clip-4">
<path clip-rule="nonzero" d="M 1454.921875 616.96875 L 1542.421875 524.148438 L 1655.261719 626.140625 L 1651.410156 576.71875 L 1583.320312 463.621094 C 1622.820312 410.058594 1637.441406 371.648438 1642.679688 348.328125 C 1645.570312 335.480469 1631.589844 325.390625 1620.300781 332.179688 C 1599.820312 344.480469 1567.960938 370.441406 1529.539062 424.789062 L 1400.761719 395.730469 L 1352.648438 407.628906 L 1484.949219 482.660156 L 1424.371094 594.910156 L 1359.75 592.441406 L 1341.800781 599.558594 L 1425.398438 625.660156 L 1476.480469 696.808594 L 1477.589844 677.53125 Z M 1454.921875 616.96875 "/>
</clipPath>
<clipPath id="clip-5">
<path clip-rule="nonzero" d="M 1454.921875 616.96875 L 1542.421875 524.148438 L 1655.261719 626.140625 L 1651.410156 576.71875 L 1583.320312 463.621094 C 1622.820312 410.058594 1637.441406 371.648438 1642.679688 348.328125 C 1645.570312 335.480469 1631.589844 325.390625 1620.300781 332.179688 C 1599.820312 344.480469 1567.960938 370.441406 1529.539062 424.789062 L 1400.761719 395.730469 L 1352.648438 407.628906 L 1484.949219 482.660156 L 1424.371094 594.910156 L 1359.75 592.441406 L 1341.800781 599.558594 L 1425.398438 625.660156 L 1476.480469 696.808594 L 1477.589844 677.53125 L 1454.921875 616.96875 "/>
</clipPath>
<linearGradient id="linear-pattern-1" gradientUnits="userSpaceOnUse" x1="0.177848" y1="0" x2="0.413207" y2="0" gradientTransform="matrix(-1608.79, 1209.81, -1209.81, -1608.79, 1978.71, 159.87)">
<stop offset="0" stop-color="rgb(46.577454%, 79.086304%, 90.730286%)" stop-opacity="1"/>
<stop offset="0.0625" stop-color="rgb(46.563721%, 78.947449%, 90.660095%)" stop-opacity="1"/>
<stop offset="0.125" stop-color="rgb(46.382141%, 78.627014%, 90.52124%)" stop-opacity="1"/>
<stop offset="0.1875" stop-color="rgb(46.047974%, 78.266907%, 90.516663%)" stop-opacity="1"/>
<stop offset="0.25" stop-color="rgb(45.889282%, 77.957153%, 90.510559%)" stop-opacity="1"/>
<stop offset="0.3125" stop-color="rgb(45.748901%, 77.650452%, 90.367126%)" stop-opacity="1"/>
<stop offset="0.375" stop-color="rgb(45.433044%, 77.29187%, 90.213013%)" stop-opacity="1"/>
<stop offset="0.4375" stop-color="rgb(45.098877%, 76.933289%, 90.162659%)" stop-opacity="1"/>
<stop offset="0.46875" stop-color="rgb(44.882202%, 76.655579%, 90.187073%)" stop-opacity="1"/>
<stop offset="0.5" stop-color="rgb(44.842529%, 76.425171%, 90.112305%)" stop-opacity="1"/>
<stop offset="0.53125" stop-color="rgb(44.851685%, 76.174927%, 89.978027%)" stop-opacity="1"/>
<stop offset="0.5625" stop-color="rgb(44.764709%, 75.96283%, 89.875793%)" stop-opacity="1"/>
<stop offset="0.625" stop-color="rgb(44.515991%, 75.692749%, 89.758301%)" stop-opacity="1"/>
<stop offset="0.6875" stop-color="rgb(44.262695%, 75.360107%, 89.666748%)" stop-opacity="1"/>
<stop offset="0.75" stop-color="rgb(44.12384%, 75.064087%, 89.666748%)" stop-opacity="1"/>
<stop offset="0.8125" stop-color="rgb(43.910217%, 74.743652%, 89.604187%)" stop-opacity="1"/>
<stop offset="0.875" stop-color="rgb(43.615723%, 74.40033%, 89.451599%)" stop-opacity="1"/>
<stop offset="0.9375" stop-color="rgb(43.479919%, 74.101257%, 89.320374%)" stop-opacity="1"/>
<stop offset="1" stop-color="rgb(43.309021%, 73.796082%, 89.317322%)" stop-opacity="1"/>
</linearGradient>
</defs>
<rect x="-200" y="-200" width="2400" height="2400" fill="rgb(100%, 100%, 100%)" fill-opacity="1"/>
<rect x="-200" y="-200" width="2400" height="2400" fill="url(#radial-pattern-0)"/>
<g clip-path="url(#clip-0)">
<g clip-path="url(#clip-1)">
<g clip-path="url(#clip-2)">
<path fill-rule="nonzero" fill="url(#linear-pattern-0)" d="M 1762.109375 923.269531 L 988.957031 -104.859375 L -101.941406 715.5 L 671.210938 1743.628906 Z M 1762.109375 923.269531 "/>
</g>
</g>
</g>
<g clip-path="url(#clip-3)">
<g clip-path="url(#clip-4)">
<g clip-path="url(#clip-5)">
<path fill-rule="nonzero" fill="url(#linear-pattern-1)" d="M 1833.675781 562.644531 L 1542.03125 174.816406 L 1163.386719 459.558594 L 1455.03125 847.382812 Z M 1833.675781 562.644531 "/>
</g>
</g>
</g>
<path fill-rule="nonzero" fill="rgb(45.341492%, 45.9198%, 46.479797%)" fill-opacity="1" d="M 589.453125 1623.71875 L 559.796875 1623.71875 C 558.882812 1623.71875 558.101562 1624 557.449219 1624.570312 C 556.800781 1625.128906 556.472656 1625.871094 556.472656 1626.78125 C 556.472656 1627.738281 556.800781 1628.511719 557.449219 1629.101562 C 558.101562 1629.691406 558.882812 1629.980469 559.796875 1629.980469 L 571.136719 1629.980469 L 571.136719 1666.019531 C 571.136719 1666.980469 571.453125 1667.769531 572.085938 1668.398438 C 572.714844 1669.03125 573.550781 1669.351562 574.59375 1669.351562 C 575.59375 1669.351562 576.429688 1669.03125 577.105469 1668.398438 C 577.777344 1667.769531 578.113281 1666.980469 578.113281 1666.019531 L 578.113281 1629.980469 L 589.453125 1629.980469 C 590.367188 1629.980469 591.140625 1629.699219 591.769531 1629.128906 C 592.398438 1628.570312 592.714844 1627.808594 592.714844 1626.851562 C 592.714844 1625.941406 592.398438 1625.191406 591.769531 1624.601562 C 591.140625 1624.011719 590.367188 1623.71875 589.453125 1623.71875 "/>
<path fill-rule="nonzero" fill="rgb(45.341492%, 45.9198%, 46.479797%)" fill-opacity="1" d="M 626.292969 1651.878906 L 633.613281 1634.308594 L 641.039062 1651.878906 Z M 637.035156 1625.679688 C 636.777344 1624.980469 636.363281 1624.441406 635.796875 1624.050781 C 635.234375 1623.660156 634.625 1623.460938 633.972656 1623.460938 C 633.277344 1623.421875 632.636719 1623.589844 632.050781 1623.980469 C 631.464844 1624.371094 631.019531 1624.941406 630.714844 1625.679688 L 614.15625 1665.699219 C 614.027344 1666.089844 613.960938 1666.441406 613.960938 1666.738281 C 614.003906 1667.570312 614.265625 1668.25 614.742188 1668.789062 C 615.222656 1669.339844 615.9375 1669.609375 616.894531 1669.609375 C 617.546875 1669.609375 618.132812 1669.410156 618.65625 1669.019531 C 619.175781 1668.628906 619.566406 1668.089844 619.828125 1667.390625 L 623.6875 1658.140625 L 643.683594 1658.140625 L 647.597656 1667.390625 C 647.855469 1668.039062 648.257812 1668.578125 648.800781 1668.988281 C 649.34375 1669.398438 649.941406 1669.609375 650.59375 1669.609375 C 651.378906 1669.609375 652.082031 1669.320312 652.710938 1668.730469 C 653.34375 1668.140625 653.65625 1667.371094 653.65625 1666.421875 C 653.65625 1665.980469 653.570312 1665.550781 653.398438 1665.109375 L 637.035156 1625.679688 "/>
<path fill-rule="nonzero" fill="rgb(45.341492%, 45.9198%, 46.479797%)" fill-opacity="1" d="M 711.734375 1645.230469 L 700.457031 1645.230469 C 699.503906 1645.230469 698.710938 1645.539062 698.078125 1646.140625 C 697.449219 1646.75 697.132812 1647.53125 697.132812 1648.488281 C 697.132812 1649.449219 697.449219 1650.230469 698.078125 1650.839844 C 698.710938 1651.449219 699.503906 1651.75 700.457031 1651.75 L 707.953125 1651.75 L 707.953125 1661.710938 C 706.882812 1662.199219 705.632812 1662.609375 704.175781 1662.929688 C 702.480469 1663.300781 700.871094 1663.480469 699.351562 1663.480469 C 696.222656 1663.480469 693.398438 1662.730469 690.878906 1661.230469 C 688.355469 1659.730469 686.367188 1657.691406 684.914062 1655.109375 C 683.457031 1652.519531 682.730469 1649.660156 682.730469 1646.53125 C 682.730469 1643.359375 683.457031 1640.5 684.914062 1637.929688 C 686.367188 1635.371094 688.355469 1633.339844 690.878906 1631.839844 C 693.398438 1630.339844 696.222656 1629.589844 699.351562 1629.589844 C 700.914062 1629.589844 702.390625 1629.75 703.78125 1630.078125 C 705.171875 1630.398438 706.476562 1630.871094 707.695312 1631.480469 C 707.953125 1631.609375 708.246094 1631.71875 708.574219 1631.800781 C 708.898438 1631.890625 709.214844 1631.929688 709.519531 1631.929688 C 710.386719 1631.929688 711.117188 1631.601562 711.703125 1630.921875 C 712.289062 1630.25 712.582031 1629.460938 712.582031 1628.539062 C 712.582031 1628.070312 712.453125 1627.578125 712.191406 1627.078125 C 711.929688 1626.578125 711.515625 1626.179688 710.953125 1625.871094 C 709.34375 1624.960938 707.539062 1624.261719 705.542969 1623.789062 C 703.542969 1623.308594 701.480469 1623.070312 699.351562 1623.070312 C 696.046875 1623.070312 692.964844 1623.671875 690.09375 1624.859375 C 687.226562 1626.058594 684.71875 1627.730469 682.566406 1629.878906 C 680.414062 1632.03125 678.730469 1634.519531 677.515625 1637.339844 C 676.296875 1640.171875 675.691406 1643.230469 675.691406 1646.53125 C 675.691406 1649.839844 676.296875 1652.898438 677.515625 1655.730469 C 678.730469 1658.550781 680.414062 1661.039062 682.566406 1663.191406 C 684.71875 1665.339844 687.226562 1667.011719 690.09375 1668.210938 C 692.964844 1669.398438 696.046875 1670 699.351562 1670 C 701.957031 1670 704.445312 1669.628906 706.8125 1668.890625 C 709.179688 1668.148438 711.34375 1667.179688 713.300781 1665.960938 C 713.734375 1665.660156 714.125 1665.261719 714.472656 1664.789062 C 714.820312 1664.308594 714.992188 1663.71875 714.992188 1663.03125 L 714.992188 1648.558594 C 714.992188 1647.601562 714.679688 1646.808594 714.050781 1646.179688 C 713.417969 1645.550781 712.648438 1645.230469 711.734375 1645.230469 "/>
<path fill-rule="nonzero" fill="rgb(45.341492%, 45.9198%, 46.479797%)" fill-opacity="1" d="M 766.878906 1662.960938 L 748.496094 1662.960938 L 748.496094 1627.050781 C 748.496094 1626.089844 748.160156 1625.300781 747.488281 1624.671875 C 746.8125 1624.039062 746.042969 1623.71875 745.171875 1623.71875 C 744.128906 1623.71875 743.285156 1624.039062 742.632812 1624.671875 C 741.980469 1625.300781 741.652344 1626.089844 741.652344 1627.050781 L 741.652344 1666.019531 C 741.652344 1666.980469 741.96875 1667.769531 742.597656 1668.398438 C 743.226562 1669.03125 744.023438 1669.351562 744.976562 1669.351562 L 766.878906 1669.351562 C 767.789062 1669.351562 768.5625 1669.039062 769.191406 1668.441406 C 769.820312 1667.828125 770.136719 1667.070312 770.136719 1666.148438 C 770.136719 1665.238281 769.820312 1664.480469 769.191406 1663.871094 C 768.5625 1663.269531 767.789062 1662.960938 766.878906 1662.960938 "/>
<path fill-rule="nonzero" fill="rgb(45.341492%, 45.9198%, 46.479797%)" fill-opacity="1" d="M 799.273438 1623.71875 C 798.230469 1623.71875 797.382812 1624.039062 796.730469 1624.671875 C 796.078125 1625.300781 795.753906 1626.089844 795.753906 1627.050781 L 795.753906 1666.019531 C 795.753906 1666.980469 796.066406 1667.769531 796.699219 1668.398438 C 797.328125 1669.03125 798.144531 1669.351562 799.144531 1669.351562 C 800.054688 1669.351562 800.847656 1669.03125 801.523438 1668.398438 C 802.195312 1667.769531 802.554688 1666.980469 802.597656 1666.019531 L 802.597656 1627.050781 C 802.597656 1626.089844 802.261719 1625.300781 801.585938 1624.671875 C 800.914062 1624.039062 800.140625 1623.71875 799.273438 1623.71875 "/>
<path fill-rule="nonzero" fill="rgb(45.341492%, 45.9198%, 46.479797%)" fill-opacity="1" d="M 865.496094 1623.71875 C 864.628906 1623.71875 863.910156 1624.011719 863.347656 1624.601562 C 862.78125 1625.191406 862.5 1625.921875 862.5 1626.78125 L 862.5 1657.648438 L 837.339844 1624.890625 C 837.078125 1624.5 836.675781 1624.210938 836.132812 1624.011719 C 835.589844 1623.820312 835.078125 1623.71875 834.601562 1623.71875 C 833.6875 1623.71875 832.90625 1624.03125 832.253906 1624.628906 C 831.601562 1625.238281 831.277344 1626.050781 831.277344 1627.050781 L 831.277344 1666.351562 C 831.277344 1667.179688 831.546875 1667.878906 832.09375 1668.46875 C 832.636719 1669.058594 833.363281 1669.351562 834.277344 1669.351562 C 835.144531 1669.351562 835.859375 1669.058594 836.425781 1668.46875 C 836.992188 1667.878906 837.273438 1667.179688 837.273438 1666.351562 L 837.273438 1635.570312 L 862.5625 1668.371094 C 862.824219 1668.679688 863.203125 1668.910156 863.703125 1669.089844 C 864.203125 1669.261719 864.671875 1669.351562 865.105469 1669.351562 C 866.0625 1669.351562 866.855469 1669.03125 867.484375 1668.398438 C 868.117188 1667.769531 868.429688 1666.980469 868.429688 1666.019531 L 868.429688 1626.78125 C 868.429688 1625.921875 868.160156 1625.191406 867.617188 1624.601562 C 867.070312 1624.011719 866.367188 1623.71875 865.496094 1623.71875 "/>
<path fill-rule="nonzero" fill="rgb(45.341492%, 45.9198%, 46.479797%)" fill-opacity="1" d="M 923.050781 1629.980469 C 923.964844 1629.980469 924.734375 1629.699219 925.367188 1629.128906 C 925.996094 1628.570312 926.3125 1627.828125 926.3125 1626.921875 C 926.3125 1626 925.996094 1625.238281 925.367188 1624.628906 C 924.734375 1624.03125 923.964844 1623.71875 923.050781 1623.71875 L 900.5 1623.71875 C 899.585938 1623.71875 898.804688 1624.039062 898.152344 1624.671875 C 897.5 1625.300781 897.175781 1626.089844 897.175781 1627.050781 L 897.175781 1666.019531 C 897.175781 1666.980469 897.5 1667.769531 898.152344 1668.398438 C 898.804688 1669.03125 899.585938 1669.351562 900.5 1669.351562 L 923.050781 1669.351562 C 923.964844 1669.351562 924.734375 1669.058594 925.367188 1668.46875 C 925.996094 1667.878906 926.3125 1667.128906 926.3125 1666.21875 C 926.3125 1665.390625 925.996094 1664.671875 925.367188 1664.039062 C 924.734375 1663.410156 923.964844 1663.089844 923.050781 1663.089844 L 904.019531 1663.089844 L 904.019531 1649.140625 L 920.117188 1649.140625 C 921.03125 1649.140625 921.804688 1648.859375 922.433594 1648.289062 C 923.0625 1647.730469 923.378906 1646.988281 923.378906 1646.078125 C 923.378906 1645.121094 923.0625 1644.339844 922.433594 1643.730469 C 921.804688 1643.121094 921.03125 1642.820312 920.117188 1642.820312 L 904.019531 1642.820312 L 904.019531 1629.980469 L 923.050781 1629.980469 "/>
<path fill-rule="nonzero" fill="rgb(45.341492%, 45.9198%, 46.479797%)" fill-opacity="1" d="M 1004.199219 1645.230469 L 992.929688 1645.230469 C 991.972656 1645.230469 991.175781 1645.539062 990.546875 1646.140625 C 989.917969 1646.75 989.601562 1647.53125 989.601562 1648.488281 C 989.601562 1649.449219 989.917969 1650.230469 990.546875 1650.839844 C 991.175781 1651.449219 991.972656 1651.75 992.929688 1651.75 L 1000.421875 1651.75 L 1000.421875 1661.710938 C 999.351562 1662.199219 998.097656 1662.609375 996.640625 1662.929688 C 994.945312 1663.300781 993.339844 1663.480469 991.820312 1663.480469 C 988.691406 1663.480469 985.863281 1662.730469 983.34375 1661.230469 C 980.824219 1659.730469 978.835938 1657.691406 977.382812 1655.109375 C 975.925781 1652.519531 975.199219 1649.660156 975.199219 1646.53125 C 975.199219 1643.359375 975.925781 1640.5 977.382812 1637.929688 C 978.835938 1635.371094 980.824219 1633.339844 983.34375 1631.839844 C 985.863281 1630.339844 988.691406 1629.589844 991.820312 1629.589844 C 993.382812 1629.589844 994.859375 1629.75 996.253906 1630.078125 C 997.640625 1630.398438 998.945312 1630.871094 1000.160156 1631.480469 C 1000.421875 1631.609375 1000.71875 1631.71875 1001.039062 1631.800781 C 1001.371094 1631.890625 1001.679688 1631.929688 1001.988281 1631.929688 C 1002.859375 1631.929688 1003.578125 1631.601562 1004.171875 1630.921875 C 1004.761719 1630.25 1005.050781 1629.460938 1005.050781 1628.539062 C 1005.050781 1628.070312 1004.921875 1627.578125 1004.660156 1627.078125 C 1004.398438 1626.578125 1003.988281 1626.179688 1003.421875 1625.871094 C 1001.808594 1624.960938 1000.011719 1624.261719 998.011719 1623.789062 C 996.011719 1623.308594 993.945312 1623.070312 991.820312 1623.070312 C 988.515625 1623.070312 985.429688 1623.671875 982.5625 1624.859375 C 979.695312 1626.058594 977.1875 1627.730469 975.035156 1629.878906 C 972.882812 1632.03125 971.199219 1634.519531 969.984375 1637.339844 C 968.765625 1640.171875 968.15625 1643.230469 968.15625 1646.53125 C 968.15625 1649.839844 968.765625 1652.898438 969.984375 1655.730469 C 971.199219 1658.550781 972.882812 1661.039062 975.035156 1663.191406 C 977.1875 1665.339844 979.695312 1667.011719 982.5625 1668.210938 C 985.429688 1669.398438 988.515625 1670 991.820312 1670 C 994.425781 1670 996.914062 1669.628906 999.28125 1668.890625 C 1001.648438 1668.148438 1003.808594 1667.179688 1005.769531 1665.960938 C 1006.199219 1665.660156 1006.589844 1665.261719 1006.941406 1664.789062 C 1007.289062 1664.308594 1007.460938 1663.71875 1007.460938 1663.03125 L 1007.460938 1648.558594 C 1007.460938 1647.601562 1007.148438 1646.808594 1006.519531 1646.179688 C 1005.890625 1645.550781 1005.121094 1645.230469 1004.199219 1645.230469 "/>
<path fill-rule="nonzero" fill="rgb(45.341492%, 45.9198%, 46.479797%)" fill-opacity="1" d="M 1066.75 1655.199219 C 1065.460938 1657.769531 1063.691406 1659.789062 1061.429688 1661.269531 C 1059.171875 1662.738281 1056.570312 1663.480469 1053.609375 1663.480469 C 1050.699219 1663.480469 1048.109375 1662.738281 1045.851562 1661.269531 C 1043.589844 1659.789062 1041.828125 1657.769531 1040.570312 1655.199219 C 1039.308594 1652.640625 1038.691406 1649.75 1038.691406 1646.53125 C 1038.691406 1643.28125 1039.308594 1640.378906 1040.570312 1637.828125 C 1041.828125 1635.289062 1043.589844 1633.28125 1045.851562 1631.800781 C 1048.109375 1630.328125 1050.699219 1629.589844 1053.609375 1629.589844 C 1056.570312 1629.589844 1059.171875 1630.328125 1061.429688 1631.800781 C 1063.691406 1633.28125 1065.460938 1635.300781 1066.75 1637.871094 C 1068.03125 1640.429688 1068.671875 1643.320312 1068.671875 1646.53125 C 1068.671875 1649.75 1068.03125 1652.640625 1066.75 1655.199219 Z M 1069.480469 1629.851562 C 1067.511719 1627.71875 1065.171875 1626.058594 1062.480469 1624.859375 C 1059.78125 1623.671875 1056.828125 1623.070312 1053.609375 1623.070312 C 1050.441406 1623.070312 1047.511719 1623.671875 1044.808594 1624.859375 C 1042.121094 1626.058594 1039.78125 1627.71875 1037.808594 1629.851562 C 1035.828125 1631.980469 1034.308594 1634.46875 1033.238281 1637.308594 C 1032.179688 1640.160156 1031.648438 1643.230469 1031.648438 1646.53125 C 1031.648438 1649.839844 1032.179688 1652.910156 1033.238281 1655.761719 C 1034.308594 1658.601562 1035.828125 1661.089844 1037.808594 1663.21875 C 1039.78125 1665.351562 1042.121094 1667.011719 1044.808594 1668.210938 C 1047.511719 1669.398438 1050.441406 1670 1053.609375 1670 C 1056.828125 1670 1059.78125 1669.398438 1062.480469 1668.210938 C 1065.171875 1667.011719 1067.511719 1665.351562 1069.480469 1663.21875 C 1071.460938 1661.089844 1072.988281 1658.601562 1074.078125 1655.761719 C 1075.160156 1652.910156 1075.710938 1649.839844 1075.710938 1646.53125 C 1075.710938 1643.230469 1075.160156 1640.160156 1074.078125 1637.308594 C 1072.988281 1634.46875 1071.460938 1631.980469 1069.480469 1629.851562 "/>
<path fill-rule="nonzero" fill="rgb(45.341492%, 45.9198%, 46.479797%)" fill-opacity="1" d="M 1127.71875 1629.980469 C 1128.628906 1629.980469 1129.410156 1629.699219 1130.039062 1629.128906 C 1130.671875 1628.570312 1130.980469 1627.828125 1130.980469 1626.921875 C 1130.980469 1626 1130.671875 1625.238281 1130.039062 1624.628906 C 1129.410156 1624.03125 1128.628906 1623.71875 1127.71875 1623.71875 L 1105.171875 1623.71875 C 1104.261719 1623.71875 1103.46875 1624.039062 1102.820312 1624.671875 C 1102.171875 1625.300781 1101.851562 1626.089844 1101.851562 1627.050781 L 1101.851562 1666.019531 C 1101.851562 1666.980469 1102.171875 1667.769531 1102.820312 1668.398438 C 1103.46875 1669.03125 1104.261719 1669.351562 1105.171875 1669.351562 L 1127.71875 1669.351562 C 1128.628906 1669.351562 1129.410156 1669.058594 1130.039062 1668.46875 C 1130.671875 1667.878906 1130.980469 1667.128906 1130.980469 1666.21875 C 1130.980469 1665.390625 1130.671875 1664.671875 1130.039062 1664.039062 C 1129.410156 1663.410156 1128.628906 1663.089844 1127.71875 1663.089844 L 1108.691406 1663.089844 L 1108.691406 1649.140625 L 1124.789062 1649.140625 C 1125.699219 1649.140625 1126.46875 1648.859375 1127.101562 1648.289062 C 1127.730469 1647.730469 1128.050781 1646.988281 1128.050781 1646.078125 C 1128.050781 1645.121094 1127.730469 1644.339844 1127.101562 1643.730469 C 1126.46875 1643.121094 1125.699219 1642.820312 1124.789062 1642.820312 L 1108.691406 1642.820312 L 1108.691406 1629.980469 L 1127.71875 1629.980469 "/>
<path fill-rule="nonzero" fill="rgb(45.341492%, 45.9198%, 46.479797%)" fill-opacity="1" d="M 1183.261719 1647.480469 C 1181.949219 1646.460938 1180.359375 1645.621094 1178.46875 1644.96875 C 1176.578125 1644.320312 1174.441406 1643.730469 1172.050781 1643.210938 C 1170.089844 1642.730469 1168.351562 1642.199219 1166.828125 1641.609375 C 1165.308594 1641.03125 1164.128906 1640.261719 1163.28125 1639.300781 C 1162.429688 1638.339844 1162.011719 1637.128906 1162.011719 1635.648438 C 1162.011719 1634.390625 1162.378906 1633.289062 1163.121094 1632.359375 C 1163.851562 1631.421875 1164.921875 1630.691406 1166.308594 1630.140625 C 1167.699219 1629.601562 1169.371094 1629.328125 1171.328125 1629.328125 C 1172.539062 1629.328125 1173.820312 1629.519531 1175.140625 1629.910156 C 1176.46875 1630.300781 1177.71875 1630.789062 1178.890625 1631.378906 C 1180.058594 1631.96875 1181 1632.628906 1181.691406 1633.371094 C 1182.128906 1633.71875 1182.648438 1633.890625 1183.261719 1633.890625 C 1184.078125 1633.890625 1184.808594 1633.550781 1185.441406 1632.878906 C 1186.070312 1632.210938 1186.390625 1631.480469 1186.390625 1630.699219 C 1186.390625 1629.648438 1185.859375 1628.679688 1184.820312 1627.761719 C 1183.339844 1626.328125 1181.410156 1625.191406 1179.019531 1624.339844 C 1176.628906 1623.488281 1174.070312 1623.070312 1171.328125 1623.070312 C 1168.328125 1623.070312 1165.640625 1623.589844 1163.25 1624.628906 C 1160.859375 1625.679688 1158.96875 1627.148438 1157.570312 1629.070312 C 1156.179688 1630.980469 1155.488281 1633.261719 1155.488281 1635.910156 C 1155.488281 1637.871094 1155.808594 1639.578125 1156.46875 1641.058594 C 1157.121094 1642.539062 1158.050781 1643.808594 1159.269531 1644.871094 C 1160.488281 1645.941406 1161.949219 1646.820312 1163.671875 1647.511719 C 1165.390625 1648.210938 1167.328125 1648.75 1169.5 1649.140625 C 1171.851562 1649.621094 1173.859375 1650.199219 1175.53125 1650.871094 C 1177.210938 1651.539062 1178.488281 1652.390625 1179.378906 1653.410156 C 1180.269531 1654.429688 1180.710938 1655.730469 1180.710938 1657.289062 C 1180.710938 1658.550781 1180.28125 1659.660156 1179.410156 1660.609375 C 1178.539062 1661.570312 1177.378906 1662.328125 1175.921875 1662.898438 C 1174.46875 1663.460938 1172.871094 1663.738281 1171.128906 1663.738281 C 1168.699219 1663.738281 1166.578125 1663.351562 1164.78125 1662.570312 C 1162.96875 1661.789062 1161.25 1660.640625 1159.601562 1659.109375 C 1158.988281 1658.640625 1158.328125 1658.398438 1157.640625 1658.398438 C 1156.730469 1658.398438 1155.96875 1658.71875 1155.359375 1659.378906 C 1154.75 1660.03125 1154.449219 1660.769531 1154.449219 1661.589844 C 1154.449219 1662.109375 1154.570312 1662.621094 1154.808594 1663.121094 C 1155.039062 1663.621094 1155.398438 1664.050781 1155.878906 1664.390625 C 1158.101562 1666.390625 1160.421875 1667.828125 1162.851562 1668.699219 C 1165.289062 1669.570312 1168.070312 1670 1171.199219 1670 C 1174.148438 1670 1176.839844 1669.460938 1179.25 1668.371094 C 1181.660156 1667.28125 1183.601562 1665.761719 1185.078125 1663.808594 C 1186.558594 1661.851562 1187.300781 1659.570312 1187.300781 1656.960938 C 1187.300781 1654.710938 1186.949219 1652.808594 1186.261719 1651.289062 C 1185.558594 1649.769531 1184.558594 1648.5 1183.261719 1647.480469 "/>
<path fill-rule="nonzero" fill="rgb(45.341492%, 45.9198%, 46.479797%)" fill-opacity="1" d="M 1264.46875 1623.71875 C 1263.558594 1623.71875 1262.769531 1624.039062 1262.089844 1624.671875 C 1261.421875 1625.300781 1261.078125 1626.089844 1261.078125 1627.050781 L 1261.078125 1643.148438 L 1238.398438 1643.148438 L 1238.398438 1627.050781 C 1238.398438 1626.089844 1238.058594 1625.300781 1237.390625 1624.671875 C 1236.71875 1624.039062 1235.949219 1623.71875 1235.078125 1623.71875 C 1234.03125 1623.71875 1233.191406 1624.039062 1232.53125 1624.671875 C 1231.878906 1625.300781 1231.558594 1626.089844 1231.558594 1627.050781 L 1231.558594 1666.019531 C 1231.558594 1666.980469 1231.871094 1667.769531 1232.5 1668.398438 C 1233.128906 1669.03125 1233.941406 1669.351562 1234.941406 1669.351562 C 1235.859375 1669.351562 1236.648438 1669.03125 1237.320312 1668.398438 C 1238 1667.769531 1238.359375 1666.980469 1238.398438 1666.019531 L 1238.398438 1649.398438 L 1261.078125 1649.398438 L 1261.078125 1666.019531 C 1261.078125 1666.980469 1261.410156 1667.769531 1262.058594 1668.398438 C 1262.710938 1669.03125 1263.5 1669.351562 1264.410156 1669.351562 C 1265.449219 1669.351562 1266.289062 1669.03125 1266.921875 1668.398438 C 1267.550781 1667.769531 1267.859375 1666.980469 1267.859375 1666.019531 L 1267.859375 1627.050781 C 1267.859375 1626.089844 1267.558594 1625.300781 1266.949219 1624.671875 C 1266.339844 1624.039062 1265.519531 1623.71875 1264.46875 1623.71875 "/>
<path fill-rule="nonzero" fill="rgb(45.341492%, 45.9198%, 46.479797%)" fill-opacity="1" d="M 1322.421875 1629.980469 C 1323.328125 1629.980469 1324.101562 1629.699219 1324.730469 1629.128906 C 1325.359375 1628.570312 1325.679688 1627.828125 1325.679688 1626.921875 C 1325.679688 1626 1325.359375 1625.238281 1324.730469 1624.628906 C 1324.101562 1624.03125 1323.328125 1623.71875 1322.421875 1623.71875 L 1299.871094 1623.71875 C 1298.949219 1623.71875 1298.171875 1624.039062 1297.519531 1624.671875 C 1296.871094 1625.300781 1296.539062 1626.089844 1296.539062 1627.050781 L 1296.539062 1666.019531 C 1296.539062 1666.980469 1296.871094 1667.769531 1297.519531 1668.398438 C 1298.171875 1669.03125 1298.949219 1669.351562 1299.871094 1669.351562 L 1322.421875 1669.351562 C 1323.328125 1669.351562 1324.101562 1669.058594 1324.730469 1668.46875 C 1325.359375 1667.878906 1325.679688 1667.128906 1325.679688 1666.21875 C 1325.679688 1665.390625 1325.359375 1664.671875 1324.730469 1664.039062 C 1324.101562 1663.410156 1323.328125 1663.089844 1322.421875 1663.089844 L 1303.390625 1663.089844 L 1303.390625 1649.140625 L 1319.488281 1649.140625 C 1320.398438 1649.140625 1321.171875 1648.859375 1321.800781 1648.289062 C 1322.429688 1647.730469 1322.75 1646.988281 1322.75 1646.078125 C 1322.75 1645.121094 1322.429688 1644.339844 1321.800781 1643.730469 C 1321.171875 1643.121094 1320.398438 1642.820312 1319.488281 1642.820312 L 1303.390625 1642.820312 L 1303.390625 1629.980469 L 1322.421875 1629.980469 "/>
<path fill-rule="nonzero" fill="rgb(45.341492%, 45.9198%, 46.479797%)" fill-opacity="1" d="M 1376.359375 1644.871094 C 1375.421875 1645.628906 1374.460938 1646.039062 1373.460938 1646.078125 L 1358.730469 1646.078125 L 1358.730469 1629.980469 L 1373.261719 1629.980469 C 1374.960938 1629.980469 1376.421875 1630.691406 1377.660156 1632.101562 C 1378.898438 1633.511719 1379.519531 1635.261719 1379.519531 1637.339844 C 1379.519531 1639 1379.21875 1640.46875 1378.640625 1641.78125 C 1378.050781 1643.078125 1377.289062 1644.109375 1376.359375 1644.871094 Z M 1386.878906 1663.941406 C 1386.320312 1663.628906 1385.929688 1663.199219 1385.710938 1662.628906 C 1385.488281 1662.070312 1385.328125 1661.339844 1385.21875 1660.449219 C 1385.109375 1659.558594 1384.988281 1658.441406 1384.859375 1657.089844 C 1384.820312 1655.570312 1384.5 1654.21875 1383.921875 1653.019531 C 1383.328125 1651.828125 1382.539062 1650.78125 1381.539062 1649.890625 C 1380.988281 1649.398438 1380.371094 1648.980469 1379.71875 1648.609375 C 1380.800781 1648.03125 1381.808594 1647.28125 1382.710938 1646.339844 C 1383.890625 1645.121094 1384.820312 1643.71875 1385.511719 1642.140625 C 1386.210938 1640.550781 1386.558594 1638.890625 1386.558594 1637.148438 C 1386.558594 1634.539062 1385.960938 1632.230469 1384.769531 1630.210938 C 1383.570312 1628.191406 1381.988281 1626.601562 1380.039062 1625.449219 C 1378.078125 1624.300781 1375.929688 1623.71875 1373.589844 1623.71875 L 1355.210938 1623.71875 C 1354.289062 1623.71875 1353.511719 1624.039062 1352.859375 1624.671875 C 1352.210938 1625.300781 1351.878906 1626.089844 1351.878906 1627.050781 L 1351.878906 1666.019531 C 1351.878906 1666.980469 1352.269531 1667.769531 1353.050781 1668.398438 C 1353.839844 1669.03125 1354.75 1669.351562 1355.789062 1669.351562 C 1356.699219 1669.351562 1357.421875 1669.03125 1357.941406 1668.398438 C 1358.460938 1667.769531 1358.730469 1666.980469 1358.730469 1666.019531 L 1358.730469 1651.75 L 1371.628906 1651.75 C 1372.628906 1651.75 1373.539062 1651.871094 1374.371094 1652.109375 C 1375.191406 1652.351562 1375.910156 1652.71875 1376.519531 1653.21875 C 1377.128906 1653.71875 1377.609375 1654.359375 1377.949219 1655.140625 C 1378.300781 1655.921875 1378.480469 1656.859375 1378.480469 1657.941406 C 1378.480469 1660.289062 1378.691406 1662.179688 1379.128906 1663.609375 C 1379.558594 1665.050781 1380.140625 1666.171875 1380.851562 1666.96875 C 1381.570312 1667.769531 1382.28125 1668.390625 1382.96875 1668.828125 C 1383.410156 1669.039062 1383.929688 1669.210938 1384.539062 1669.320312 C 1385.148438 1669.421875 1385.738281 1669.398438 1386.328125 1669.25 C 1386.921875 1669.101562 1387.410156 1668.761719 1387.800781 1668.238281 C 1388.359375 1667.550781 1388.550781 1666.761719 1388.351562 1665.890625 C 1388.148438 1665.019531 1387.671875 1664.371094 1386.878906 1663.941406 "/>
<path fill-rule="nonzero" fill="rgb(45.341492%, 45.9198%, 46.479797%)" fill-opacity="1" d="M 1440.269531 1663.089844 L 1421.238281 1663.089844 L 1421.238281 1649.140625 L 1437.328125 1649.140625 C 1438.25 1649.140625 1439.019531 1648.859375 1439.648438 1648.289062 C 1440.28125 1647.730469 1440.589844 1646.988281 1440.589844 1646.078125 C 1440.589844 1645.121094 1440.28125 1644.339844 1439.648438 1643.730469 C 1439.019531 1643.121094 1438.25 1642.820312 1437.328125 1642.820312 L 1421.238281 1642.820312 L 1421.238281 1629.980469 L 1440.269531 1629.980469 C 1441.179688 1629.980469 1441.949219 1629.699219 1442.578125 1629.128906 C 1443.210938 1628.570312 1443.53125 1627.828125 1443.53125 1626.921875 C 1443.53125 1626 1443.210938 1625.238281 1442.578125 1624.628906 C 1441.949219 1624.03125 1441.179688 1623.71875 1440.269531 1623.71875 L 1417.71875 1623.71875 C 1416.800781 1623.71875 1416.019531 1624.039062 1415.371094 1624.671875 C 1414.71875 1625.300781 1414.390625 1626.089844 1414.390625 1627.050781 L 1414.390625 1666.019531 C 1414.390625 1666.980469 1414.71875 1667.769531 1415.371094 1668.398438 C 1416.019531 1669.03125 1416.800781 1669.351562 1417.71875 1669.351562 L 1440.269531 1669.351562 C 1441.179688 1669.351562 1441.949219 1669.058594 1442.578125 1668.46875 C 1443.210938 1667.878906 1443.53125 1667.128906 1443.53125 1666.21875 C 1443.53125 1665.390625 1443.210938 1664.671875 1442.578125 1664.039062 C 1441.949219 1663.410156 1441.179688 1663.089844 1440.269531 1663.089844 "/>
<path fill-rule="nonzero" fill="rgb(45.341492%, 45.9198%, 46.479797%)" fill-opacity="1" d="M 436.703125 1465.441406 L 374.21875 1465.441406 C 372.296875 1465.441406 370.648438 1466.03125 369.277344 1467.21875 C 367.902344 1468.410156 367.21875 1469.96875 367.21875 1471.890625 C 367.21875 1473.910156 367.902344 1475.53125 369.277344 1476.769531 C 370.648438 1478 372.296875 1478.621094 374.21875 1478.621094 L 398.113281 1478.621094 L 398.113281 1554.558594 C 398.113281 1556.578125 398.777344 1558.25 400.105469 1559.570312 C 401.433594 1560.898438 403.195312 1561.558594 405.390625 1561.558594 C 407.496094 1561.558594 409.261719 1560.898438 410.679688 1559.570312 C 412.097656 1558.25 412.808594 1556.578125 412.808594 1554.558594 L 412.808594 1478.621094 L 436.703125 1478.621094 C 438.625 1478.621094 440.25 1478.03125 441.578125 1476.839844 C 442.902344 1475.648438 443.570312 1474.039062 443.570312 1472.03125 C 443.570312 1470.109375 442.902344 1468.53125 441.578125 1467.289062 C 440.25 1466.058594 438.625 1465.441406 436.703125 1465.441406 "/>
<path fill-rule="nonzero" fill="rgb(45.341492%, 45.9198%, 46.479797%)" fill-opacity="1" d="M 548.824219 1510 C 546.855469 1511.601562 544.820312 1512.449219 542.714844 1512.539062 L 511.679688 1512.539062 L 511.679688 1478.621094 L 542.304688 1478.621094 C 545.871094 1478.621094 548.964844 1480.109375 551.574219 1483.078125 C 554.179688 1486.058594 555.484375 1489.738281 555.484375 1494.140625 C 555.484375 1497.621094 554.867188 1500.730469 553.632812 1503.480469 C 552.398438 1506.21875 550.792969 1508.398438 548.824219 1510 Z M 571.003906 1550.171875 C 569.8125 1549.53125 568.988281 1548.609375 568.53125 1547.421875 C 568.074219 1546.230469 567.730469 1544.699219 567.5 1542.820312 C 567.273438 1540.941406 567.019531 1538.589844 566.746094 1535.75 C 566.652344 1532.539062 565.992188 1529.679688 564.753906 1527.160156 C 563.519531 1524.648438 561.847656 1522.449219 559.742188 1520.570312 C 558.578125 1519.539062 557.289062 1518.648438 555.902344 1517.871094 C 558.195312 1516.660156 560.304688 1515.070312 562.214844 1513.089844 C 564.6875 1510.53125 566.652344 1507.570312 568.121094 1504.230469 C 569.582031 1500.890625 570.316406 1497.390625 570.316406 1493.730469 C 570.316406 1488.230469 569.058594 1483.359375 566.539062 1479.101562 C 564.023438 1474.839844 560.703125 1471.5 556.585938 1469.078125 C 552.464844 1466.648438 547.933594 1465.441406 542.988281 1465.441406 L 504.265625 1465.441406 C 502.34375 1465.441406 500.691406 1466.101562 499.320312 1467.429688 C 497.945312 1468.761719 497.261719 1470.429688 497.261719 1472.441406 L 497.261719 1554.558594 C 497.261719 1556.578125 498.085938 1558.25 499.730469 1559.570312 C 501.382812 1560.898438 503.304688 1561.558594 505.5 1561.558594 C 507.421875 1561.558594 508.933594 1560.898438 510.03125 1559.570312 C 511.128906 1558.25 511.679688 1556.578125 511.679688 1554.558594 L 511.679688 1524.488281 L 538.871094 1524.488281 C 540.976562 1524.488281 542.898438 1524.738281 544.636719 1525.238281 C 546.375 1525.75 547.886719 1526.53125 549.167969 1527.578125 C 550.449219 1528.628906 551.457031 1529.980469 552.191406 1531.628906 C 552.921875 1533.28125 553.289062 1535.25 553.289062 1537.53125 C 553.289062 1542.480469 553.746094 1546.460938 554.660156 1549.480469 C 555.578125 1552.5 556.789062 1554.859375 558.300781 1556.550781 C 559.8125 1558.25 561.296875 1559.550781 562.765625 1560.46875 C 563.679688 1560.929688 564.777344 1561.269531 566.058594 1561.5 C 567.339844 1561.71875 568.601562 1561.679688 569.835938 1561.359375 C 571.070312 1561.039062 572.101562 1560.328125 572.925781 1559.230469 C 574.113281 1557.769531 574.507812 1556.121094 574.09375 1554.289062 C 573.679688 1552.460938 572.652344 1551.078125 571.003906 1550.171875 "/>
<path fill-rule="nonzero" fill="rgb(45.341492%, 45.9198%, 46.479797%)" fill-opacity="1" d="M 646.003906 1524.761719 L 661.425781 1487.75 L 677.070312 1524.761719 Z M 668.640625 1469.558594 C 668.089844 1468.089844 667.21875 1466.949219 666.03125 1466.121094 C 664.839844 1465.300781 663.558594 1464.890625 662.1875 1464.890625 C 660.722656 1464.800781 659.371094 1465.160156 658.136719 1465.988281 C 656.898438 1466.808594 655.960938 1468 655.320312 1469.558594 L 620.441406 1553.871094 C 620.164062 1554.699219 620.027344 1555.429688 620.027344 1556.070312 C 620.117188 1557.808594 620.667969 1559.25 621.675781 1560.398438 C 622.683594 1561.539062 624.191406 1562.109375 626.207031 1562.109375 C 627.578125 1562.109375 628.816406 1561.699219 629.914062 1560.878906 C 631.015625 1560.050781 631.835938 1558.910156 632.386719 1557.441406 L 640.511719 1537.941406 L 682.644531 1537.941406 L 690.886719 1557.441406 C 691.4375 1558.820312 692.28125 1559.941406 693.425781 1560.808594 C 694.570312 1561.679688 695.832031 1562.109375 697.203125 1562.109375 C 698.851562 1562.109375 700.339844 1561.5 701.667969 1560.261719 C 702.992188 1559.019531 703.65625 1557.398438 703.65625 1555.390625 C 703.65625 1554.46875 703.472656 1553.550781 703.109375 1552.640625 L 668.640625 1469.558594 "/>
<path fill-rule="nonzero" fill="rgb(45.341492%, 45.9198%, 46.479797%)" fill-opacity="1" d="M 825.324219 1465.160156 C 822.394531 1465.160156 820.289062 1466.628906 819.007812 1469.558594 L 791.277344 1539.398438 L 761.882812 1469.699219 C 760.511719 1466.671875 758.355469 1465.160156 755.429688 1465.160156 C 753.964844 1465.160156 752.453125 1465.761719 750.898438 1466.949219 C 749.339844 1468.140625 748.5625 1469.789062 748.5625 1471.890625 C 748.5625 1472.441406 748.609375 1472.96875 748.699219 1473.46875 C 748.789062 1473.980469 748.925781 1474.460938 749.113281 1474.910156 L 783.855469 1557.171875 C 784.492188 1558.539062 785.386719 1559.601562 786.53125 1560.328125 C 787.675781 1561.058594 788.886719 1561.46875 790.171875 1561.558594 C 791.453125 1561.558594 792.710938 1561.199219 793.949219 1560.46875 C 795.183594 1559.730469 796.164062 1558.589844 796.898438 1557.03125 L 831.644531 1474.910156 C 832.101562 1473.808594 832.328125 1472.761719 832.328125 1471.75 C 832.328125 1469.921875 831.644531 1468.371094 830.269531 1467.089844 C 828.898438 1465.800781 827.25 1465.160156 825.324219 1465.160156 "/>
<path fill-rule="nonzero" fill="rgb(45.341492%, 45.9198%, 46.479797%)" fill-opacity="1" d="M 940.539062 1478.621094 C 942.464844 1478.621094 944.085938 1478.03125 945.414062 1476.839844 C 946.742188 1475.648438 947.40625 1474.089844 947.40625 1472.171875 C 947.40625 1470.238281 946.742188 1468.640625 945.414062 1467.359375 C 944.085938 1466.078125 942.464844 1465.441406 940.539062 1465.441406 L 893.027344 1465.441406 C 891.105469 1465.441406 889.453125 1466.101562 888.082031 1467.429688 C 886.710938 1468.761719 886.023438 1470.429688 886.023438 1472.441406 L 886.023438 1554.558594 C 886.023438 1556.578125 886.710938 1558.25 888.082031 1559.570312 C 889.453125 1560.898438 891.105469 1561.558594 893.027344 1561.558594 L 940.539062 1561.558594 C 942.464844 1561.558594 944.085938 1560.949219 945.414062 1559.710938 C 946.742188 1558.46875 947.40625 1556.898438 947.40625 1554.96875 C 947.40625 1553.230469 946.742188 1551.699219 945.414062 1550.371094 C 944.085938 1549.050781 942.464844 1548.378906 940.539062 1548.378906 L 900.441406 1548.378906 L 900.441406 1518.988281 L 934.359375 1518.988281 C 936.28125 1518.988281 937.90625 1518.398438 939.234375 1517.210938 C 940.5625 1516.019531 941.226562 1514.460938 941.226562 1512.539062 C 941.226562 1510.53125 940.5625 1508.878906 939.234375 1507.601562 C 937.90625 1506.320312 936.28125 1505.671875 934.359375 1505.671875 L 900.441406 1505.671875 L 900.441406 1478.621094 L 940.539062 1478.621094 "/>
<path fill-rule="nonzero" fill="rgb(45.341492%, 45.9198%, 46.479797%)" fill-opacity="1" d="M 1055.75 1548.109375 L 1017.03125 1548.109375 L 1017.03125 1472.441406 C 1017.03125 1470.429688 1016.320312 1468.761719 1014.898438 1467.429688 C 1013.480469 1466.101562 1011.859375 1465.441406 1010.03125 1465.441406 C 1007.828125 1465.441406 1006.039062 1466.101562 1004.671875 1467.429688 C 1003.300781 1468.761719 1002.609375 1470.429688 1002.609375 1472.441406 L 1002.609375 1554.558594 C 1002.609375 1556.578125 1003.269531 1558.25 1004.601562 1559.570312 C 1005.929688 1560.898438 1007.601562 1561.558594 1009.609375 1561.558594 L 1055.75 1561.558594 C 1057.679688 1561.558594 1059.300781 1560.929688 1060.628906 1559.640625 C 1061.960938 1558.359375 1062.621094 1556.761719 1062.621094 1554.839844 C 1062.621094 1552.910156 1061.960938 1551.308594 1060.628906 1550.03125 C 1059.300781 1548.75 1057.679688 1548.109375 1055.75 1548.109375 "/>
<path fill-rule="nonzero" fill="rgb(45.341492%, 45.9198%, 46.479797%)" fill-opacity="1" d="M 1207.910156 1548.109375 L 1169.179688 1548.109375 L 1169.179688 1472.441406 C 1169.179688 1470.429688 1168.46875 1468.761719 1167.050781 1467.429688 C 1165.628906 1466.101562 1164.011719 1465.441406 1162.179688 1465.441406 C 1159.980469 1465.441406 1158.199219 1466.101562 1156.820312 1467.429688 C 1155.449219 1468.761719 1154.761719 1470.429688 1154.761719 1472.441406 L 1154.761719 1554.558594 C 1154.761719 1556.578125 1155.429688 1558.25 1156.75 1559.570312 C 1158.078125 1560.898438 1159.75 1561.558594 1161.769531 1561.558594 L 1207.910156 1561.558594 C 1209.828125 1561.558594 1211.449219 1560.929688 1212.78125 1559.640625 C 1214.109375 1558.359375 1214.769531 1556.761719 1214.769531 1554.839844 C 1214.769531 1552.910156 1214.109375 1551.308594 1212.78125 1550.03125 C 1211.449219 1548.75 1209.828125 1548.109375 1207.910156 1548.109375 "/>
<path fill-rule="nonzero" fill="rgb(45.341492%, 45.9198%, 46.479797%)" fill-opacity="1" d="M 1337.46875 1531.769531 C 1334.769531 1537.171875 1331.039062 1541.429688 1326.28125 1544.539062 C 1321.519531 1547.648438 1316.019531 1549.210938 1309.800781 1549.210938 C 1303.671875 1549.210938 1298.21875 1547.648438 1293.460938 1544.539062 C 1288.699219 1541.429688 1284.988281 1537.171875 1282.328125 1531.769531 C 1279.679688 1526.359375 1278.351562 1520.28125 1278.351562 1513.5 C 1278.351562 1506.628906 1279.679688 1500.519531 1282.328125 1495.171875 C 1284.988281 1489.808594 1288.699219 1485.578125 1293.460938 1482.46875 C 1298.21875 1479.351562 1303.671875 1477.800781 1309.800781 1477.800781 C 1316.019531 1477.800781 1321.519531 1479.351562 1326.28125 1482.46875 C 1331.039062 1485.578125 1334.769531 1489.839844 1337.46875 1495.238281 C 1340.171875 1500.640625 1341.519531 1506.730469 1341.519531 1513.5 C 1341.519531 1520.28125 1340.171875 1526.359375 1337.46875 1531.769531 Z M 1343.238281 1478.351562 C 1339.070312 1473.859375 1334.148438 1470.359375 1328.480469 1467.839844 C 1322.800781 1465.320312 1316.570312 1464.058594 1309.800781 1464.058594 C 1303.121094 1464.058594 1296.941406 1465.320312 1291.261719 1467.839844 C 1285.578125 1470.359375 1280.660156 1473.859375 1276.5 1478.351562 C 1272.328125 1482.828125 1269.128906 1488.070312 1266.890625 1494.070312 C 1264.640625 1500.070312 1263.519531 1506.539062 1263.519531 1513.5 C 1263.519531 1520.460938 1264.640625 1526.941406 1266.890625 1532.929688 C 1269.128906 1538.929688 1272.328125 1544.171875 1276.5 1548.660156 C 1280.660156 1553.140625 1285.578125 1556.640625 1291.261719 1559.160156 C 1296.941406 1561.679688 1303.121094 1562.941406 1309.800781 1562.941406 C 1316.570312 1562.941406 1322.800781 1561.679688 1328.480469 1559.160156 C 1334.148438 1556.640625 1339.070312 1553.140625 1343.238281 1548.660156 C 1347.398438 1544.171875 1350.628906 1538.929688 1352.921875 1532.929688 C 1355.210938 1526.941406 1356.351562 1520.460938 1356.351562 1513.5 C 1356.351562 1506.539062 1355.210938 1500.070312 1352.921875 1494.070312 C 1350.628906 1488.070312 1347.398438 1482.828125 1343.238281 1478.351562 "/>
<path fill-rule="nonzero" fill="rgb(45.341492%, 45.9198%, 46.479797%)" fill-opacity="1" d="M 1482.140625 1510.75 L 1458.378906 1510.75 C 1456.371094 1510.75 1454.699219 1511.398438 1453.371094 1512.679688 C 1452.039062 1513.960938 1451.378906 1515.609375 1451.378906 1517.621094 C 1451.378906 1519.640625 1452.039062 1521.28125 1453.371094 1522.558594 C 1454.699219 1523.851562 1456.371094 1524.488281 1458.378906 1524.488281 L 1474.171875 1524.488281 L 1474.171875 1545.460938 C 1471.921875 1546.5 1469.28125 1547.371094 1466.210938 1548.039062 C 1462.640625 1548.820312 1459.25 1549.210938 1456.050781 1549.210938 C 1449.460938 1549.210938 1443.5 1547.628906 1438.199219 1544.46875 C 1432.878906 1541.308594 1428.699219 1537.011719 1425.628906 1531.558594 C 1422.558594 1526.109375 1421.03125 1520.089844 1421.03125 1513.5 C 1421.03125 1506.820312 1422.558594 1500.78125 1425.628906 1495.371094 C 1428.699219 1489.96875 1432.878906 1485.691406 1438.199219 1482.53125 C 1443.5 1479.378906 1449.460938 1477.800781 1456.050781 1477.800781 C 1459.339844 1477.800781 1462.449219 1478.140625 1465.390625 1478.828125 C 1468.308594 1479.511719 1471.058594 1480.5 1473.628906 1481.78125 C 1474.171875 1482.050781 1474.789062 1482.28125 1475.480469 1482.46875 C 1476.171875 1482.648438 1476.828125 1482.738281 1477.46875 1482.738281 C 1479.300781 1482.738281 1480.828125 1482.03125 1482.070312 1480.609375 C 1483.308594 1479.191406 1483.921875 1477.519531 1483.921875 1475.601562 C 1483.921875 1474.589844 1483.648438 1473.558594 1483.101562 1472.511719 C 1482.550781 1471.460938 1481.679688 1470.609375 1480.488281 1469.96875 C 1477.101562 1468.050781 1473.300781 1466.578125 1469.089844 1465.578125 C 1464.878906 1464.570312 1460.53125 1464.058594 1456.050781 1464.058594 C 1449.089844 1464.058594 1442.589844 1465.320312 1436.550781 1467.839844 C 1430.511719 1470.359375 1425.21875 1473.878906 1420.691406 1478.410156 C 1416.160156 1482.949219 1412.609375 1488.191406 1410.039062 1494.140625 C 1407.480469 1500.089844 1406.199219 1506.539062 1406.199219 1513.5 C 1406.199219 1520.460938 1407.480469 1526.910156 1410.039062 1532.859375 C 1412.609375 1538.820312 1416.160156 1544.058594 1420.691406 1548.589844 C 1425.21875 1553.121094 1430.511719 1556.640625 1436.550781 1559.160156 C 1442.589844 1561.679688 1449.089844 1562.941406 1456.050781 1562.941406 C 1461.539062 1562.941406 1466.78125 1562.160156 1471.769531 1560.601562 C 1476.761719 1559.050781 1481.308594 1556.988281 1485.429688 1554.421875 C 1486.351562 1553.78125 1487.171875 1552.960938 1487.910156 1551.949219 C 1488.640625 1550.949219 1489.011719 1549.710938 1489.011719 1548.238281 L 1489.011719 1517.761719 C 1489.011719 1515.75 1488.339844 1514.070312 1487.011719 1512.75 C 1485.691406 1511.421875 1484.058594 1510.75 1482.140625 1510.75 "/>
<path fill-rule="nonzero" fill="rgb(45.341492%, 45.9198%, 46.479797%)" fill-opacity="1" d="M 1613.898438 1531.769531 C 1611.199219 1537.171875 1607.46875 1541.429688 1602.710938 1544.539062 C 1597.949219 1547.648438 1592.449219 1549.210938 1586.230469 1549.210938 C 1580.101562 1549.210938 1574.648438 1547.648438 1569.890625 1544.539062 C 1565.128906 1541.429688 1561.421875 1537.171875 1558.769531 1531.769531 C 1556.109375 1526.359375 1554.78125 1520.28125 1554.78125 1513.5 C 1554.78125 1506.628906 1556.109375 1500.519531 1558.769531 1495.171875 C 1561.421875 1489.808594 1565.128906 1485.578125 1569.890625 1482.46875 C 1574.648438 1479.351562 1580.101562 1477.800781 1586.230469 1477.800781 C 1592.449219 1477.800781 1597.949219 1479.351562 1602.710938 1482.46875 C 1607.46875 1485.578125 1611.199219 1489.839844 1613.898438 1495.238281 C 1616.601562 1500.640625 1617.949219 1506.730469 1617.949219 1513.5 C 1617.949219 1520.28125 1616.601562 1526.359375 1613.898438 1531.769531 Z M 1629.351562 1494.070312 C 1627.058594 1488.070312 1623.828125 1482.828125 1619.671875 1478.351562 C 1615.5 1473.859375 1610.578125 1470.359375 1604.910156 1467.839844 C 1599.230469 1465.320312 1593 1464.058594 1586.230469 1464.058594 C 1579.550781 1464.058594 1573.371094 1465.320312 1567.691406 1467.839844 C 1562.011719 1470.359375 1557.089844 1473.859375 1552.929688 1478.351562 C 1548.761719 1482.828125 1545.558594 1488.070312 1543.320312 1494.070312 C 1541.070312 1500.070312 1539.949219 1506.539062 1539.949219 1513.5 C 1539.949219 1520.460938 1541.070312 1526.941406 1543.320312 1532.929688 C 1545.558594 1538.929688 1548.761719 1544.171875 1552.929688 1548.660156 C 1557.089844 1553.140625 1562.011719 1556.640625 1567.691406 1559.160156 C 1573.371094 1561.679688 1579.550781 1562.941406 1586.230469 1562.941406 C 1593 1562.941406 1599.230469 1561.679688 1604.910156 1559.160156 C 1610.578125 1556.640625 1615.5 1553.140625 1619.671875 1548.660156 C 1623.828125 1544.171875 1627.058594 1538.929688 1629.351562 1532.929688 C 1631.640625 1526.941406 1632.78125 1520.460938 1632.78125 1513.5 C 1632.78125 1506.539062 1631.640625 1500.070312 1629.351562 1494.070312 "/>
</svg>
